<?xml version="1.0" standalone="no"?>
<!DOCTYPE svg PUBLIC "-//W3C//DTD SVG 20010904//EN"
 "http://www.w3.org/TR/2001/REC-SVG-20010904/DTD/svg10.dtd">
<svg version="1.0" xmlns="http://www.w3.org/2000/svg"
 width="152.000000pt" height="152.000000pt" viewBox="0 0 152.000000 152.000000"
 preserveAspectRatio="xMidYMid meet">
<metadata>
Created by potrace 1.14, written by Peter Selinger 2001-2017
</metadata>
<g transform="translate(0.000000,152.000000) scale(0.100000,-0.100000)"
fill="#000000" stroke="none">
<path d="M460 1083 c-39 -12 -62 -29 -79 -57 -22 -38 -106 -389 -98 -411 4
-10 19 -15 45 -15 36 0 40 -3 45 -30 9 -42 71 -106 122 -126 103 -39 214 22
249 139 9 28 33 20 40 -14 9 -44 81 -114 132 -128 44 -12 93 -6 135 15 37 19
86 77 94 113 6 28 10 31 46 31 26 0 42 5 45 15 9 22 -75 374 -98 411 -31 52
-112 81 -138 49 -17 -21 4 -45 40 -45 51 0 59 -20 135 -347 10 -43 -20 -24
-41 26 -58 131 -238 148 -323 30 -17 -23 -31 -50 -31 -61 0 -34 -28 -18 -51
29 -45 88 -125 127 -224 109 -45 -9 -123 -83 -131 -126 -4 -16 -13 -30 -20
-30 -10 0 -13 7 -9 23 62 268 76 313 96 330 12 9 29 17 38 17 10 0 26 6 36 14
16 12 17 16 6 30 -13 16 -32 19 -61 9z m176 -338 c36 -23 67 -97 59 -138 -17
-79 -64 -117 -143 -117 -80 0 -132 56 -132 142 0 84 64 143 147 135 24 -3 54
-12 69 -22z m377 11 c75 -32 110 -123 73 -195 -32 -62 -123 -90 -186 -58 -39
20 -70 74 -70 124 0 58 22 98 68 122 44 24 72 26 115 7z"/>
</g>
</svg>
